<svg width="240" height="100" fill="none" xmlns="http://www.w3.org/2000/svg"><g clip-path="url(#clip0)"><path d="M73.677 27.735c-1.711 2.027-4.449 3.626-7.187 3.397-.342-2.74.998-5.652 2.567-7.45 1.711-2.083 4.706-3.568 7.13-3.682.285 2.854-.827 5.652-2.51 7.735zm2.481 3.94c-3.964-.229-7.358 2.255-9.24 2.255-1.91 0-4.791-2.141-7.928-2.084-4.079.057-7.872 2.369-9.953 6.051-4.278 7.365-1.113 18.269 3.023 24.263 2.024 2.968 4.449 6.222 7.643 6.108 3.023-.114 4.22-1.97 7.87-1.97 3.68 0 4.735 1.97 7.93 1.913 3.307-.057 5.39-2.968 7.414-5.937 2.31-3.368 3.251-6.65 3.308-6.822-.057-.057-6.388-2.483-6.445-9.79-.057-6.11 4.99-9.02 5.219-9.192-2.852-4.224-7.3-4.681-8.84-4.795zm22.9-8.278v44.5h6.902V52.683h9.554c8.727 0 14.859-5.994 14.859-14.672 0-8.677-6.018-14.614-14.631-14.614H99.059zm6.902 5.823h7.957c5.989 0 9.411 3.197 9.411 8.82s-3.422 8.849-9.439 8.849h-7.929v-17.67zm37.018 39.02c4.335 0 8.356-2.198 10.181-5.68h.143v5.337h6.388v-22.15c0-6.422-5.133-10.562-13.033-10.562-7.33 0-12.748 4.197-12.948 9.962h6.217c.514-2.74 3.052-4.538 6.531-4.538 4.221 0 6.588 1.97 6.588 5.595v2.454l-8.613.514c-8.013.486-12.348 3.768-12.348 9.477 0 5.766 4.477 9.59 10.894 9.59zm1.854-5.28c-3.679 0-6.018-1.77-6.018-4.482 0-2.798 2.253-4.425 6.559-4.682l7.672-.485v2.512c0 4.167-3.536 7.136-8.213 7.136zM168.217 80c6.731 0 9.896-2.569 12.662-10.362L193 35.614h-7.016l-8.128 26.289h-.142l-8.128-26.29h-7.215l11.692 32.398-.627 1.97c-1.055 3.34-2.766 4.624-5.818 4.624a21.63 21.63 0 01-2.025-.114v5.338c.4.114 2.111.171 2.624.171z" fill="#000"/></g><defs><clipPath id="clip0"><path fill="#fff" d="M0 0h240v100H0z"/></clipPath></defs></svg>