<svg width="17" height="13" viewBox="0 0 17 13" fill="none" xmlns="http://www.w3.org/2000/svg">
<path d="M14.3789 0.105469C14.4492 0.0351562 14.5195 0 14.6602 0C14.7656 0 14.8711 0.0351562 14.9766 0.105469L15.9609 1.125C16.0312 1.19531 16.1016 1.30078 16.1016 1.40625C16.1016 1.54688 16.0312 1.65234 15.9609 1.72266L5.41406 12.2695C5.34375 12.3398 5.23828 12.375 5.13281 12.375C4.99219 12.375 4.88672 12.3398 4.81641 12.2695L0.140625 7.55859C0.0351562 7.48828 0 7.41797 0 7.27734C0 7.17188 0.0351562 7.06641 0.140625 6.96094L1.125 5.97656C1.19531 5.90625 1.30078 5.83594 1.44141 5.83594C1.54688 5.83594 1.65234 5.90625 1.72266 5.97656L5.13281 9.38672L14.3789 0.105469Z" fill="white"/>
</svg>
