<svg width="16" height="9" viewBox="0 0 16 9" fill="none" xmlns="http://www.w3.org/2000/svg">
<path d="M15.4336 0.808594C15.5039 0.914062 15.5391 1.01953 15.5391 1.125C15.5391 1.26562 15.5039 1.33594 15.4336 1.40625L8.08594 8.78906C7.98047 8.85938 7.875 8.89453 7.76953 8.89453C7.62891 8.89453 7.55859 8.85938 7.48828 8.78906L0.105469 1.40625C0.0351562 1.33594 0 1.26562 0 1.125C0 1.01953 0.0351562 0.914062 0.105469 0.808594L0.808594 0.105469C0.878906 0.0351562 0.949219 0 1.08984 0C1.19531 0 1.30078 0.0351562 1.40625 0.105469L7.76953 6.46875L14.1328 0.105469C14.2031 0.0351562 14.3086 0 14.4492 0C14.5547 0 14.6602 0.0351562 14.7305 0.105469L15.4336 0.808594Z" fill="#008500"/>
</svg>
