<svg width="9" height="16" viewBox="0 0 9 16" fill="none" xmlns="http://www.w3.org/2000/svg">
<g clip-path="url(#clip0)">
<path d="M0.808594 0.105469C0.914063 0.0351563 1.01953 4.6102e-09 1.125 0C1.26562 -6.1469e-09 1.33594 0.0351563 1.40625 0.105469L8.78906 7.45312C8.85937 7.55859 8.89453 7.66406 8.89453 7.76953C8.89453 7.91016 8.85937 7.98047 8.78906 8.05078L1.40625 15.4336C1.33594 15.5039 1.26562 15.5391 1.125 15.5391C1.01953 15.5391 0.914063 15.5039 0.808595 15.4336L0.10547 14.7305C0.0351568 14.6602 5.90103e-07 14.5898 5.83956e-07 14.4492C5.79346e-07 14.3438 0.0351568 14.2383 0.10547 14.1328L6.46875 7.76953L0.105469 1.40625C0.0351562 1.33594 6.147e-09 1.23047 0 1.08984C-4.611e-09 0.984375 0.0351562 0.878906 0.105469 0.808594L0.808594 0.105469Z" fill="#707070"/>
</g>
<defs>
<clipPath id="clip0">
<rect width="9" height="16" fill="white"/>
</clipPath>
</defs>
</svg>
