<svg width="240" height="100" fill="none" xmlns="http://www.w3.org/2000/svg"><g clip-path="url(#clip0)"><path d="M116.102 48.937v16.761h-5.317V24.305h14.103a12.75 12.75 0 019.132 3.583 11.524 11.524 0 013.814 8.736 11.458 11.458 0 01-3.814 8.785c-2.466 2.352-5.51 3.527-9.132 3.524h-8.786v.004zm0-19.536v14.45h8.918a7.028 7.028 0 005.261-2.14 7.059 7.059 0 001.581-7.805 7.057 7.057 0 00-1.581-2.312 6.936 6.936 0 00-5.261-2.197h-8.918v.004zM150.088 36.452c3.93 0 7.033 1.05 9.307 3.151 2.275 2.1 3.411 4.98 3.409 8.64v17.455h-5.086v-3.93h-.232c-2.201 3.237-5.13 4.855-8.785 4.855-3.12 0-5.73-.925-7.831-2.774a8.857 8.857 0 01-3.151-6.936c0-2.93 1.108-5.261 3.323-6.992 2.215-1.73 5.172-2.598 8.871-2.603 3.158 0 5.758.578 7.801 1.734v-1.215a6.053 6.053 0 00-2.196-4.707 7.531 7.531 0 00-5.133-1.938c-2.97 0-5.32 1.252-7.051 3.758L138.651 42c2.576-3.698 6.388-5.548 11.437-5.548zm-6.88 20.577a4.252 4.252 0 001.764 3.467 6.488 6.488 0 004.132 1.388 8.477 8.477 0 005.981-2.484c1.762-1.658 2.642-3.603 2.642-5.836-1.658-1.321-3.969-1.982-6.935-1.982-2.16 0-3.962.52-5.404 1.562-1.456 1.057-2.18 2.342-2.18 3.885zM192 37.377l-17.756 40.806h-5.489l6.589-14.278-11.675-26.528h5.78l8.438 20.345h.116l8.207-20.345H192z" fill="#5F6368"/><path d="M94.615 45.323a28.339 28.339 0 00-.41-4.836H71.78v9.159h12.845a11.006 11.006 0 01-4.75 7.226v5.945h7.666c4.489-4.138 7.075-10.258 7.075-17.494z" fill="#4285F4"/><path d="M71.779 68.562c6.417 0 11.82-2.107 15.76-5.74l-7.665-5.945c-2.133 1.446-4.881 2.272-8.095 2.272-6.203 0-11.467-4.181-13.35-9.816h-7.897v6.127A23.78 23.78 0 0071.78 68.562z" fill="#34A853"/><path d="M58.43 49.333a14.247 14.247 0 010-9.103v-6.127h-7.898a23.78 23.78 0 000 21.356l7.897-6.126z" fill="#FBBC04"/><path d="M71.779 30.415a12.91 12.91 0 019.122 3.566l6.788-6.787a22.848 22.848 0 00-15.91-6.192 23.78 23.78 0 00-21.247 13.102l7.897 6.126c1.883-5.634 7.147-9.815 13.35-9.815z" fill="#EA4335"/></g><defs><clipPath id="clip0"><path fill="#fff" d="M0 0h240v100H0z"/></clipPath></defs></svg>