<svg width="240" height="100" fill="none" xmlns="http://www.w3.org/2000/svg"><g clip-path="url(#clip0)"><path d="M38.133 64.068h-7.13l4.46-27.569h7.128l-4.459 27.57zM63.975 37.174C62.57 36.616 60.34 36 57.582 36c-7.04 0-11.997 3.754-12.028 9.12-.058 3.96 3.55 6.16 6.248 7.48 2.758 1.35 3.695 2.23 3.695 3.433-.028 1.847-2.228 2.698-4.28 2.698-2.847 0-4.371-.439-6.689-1.467l-.939-.44-.997 6.189c1.672.761 4.752 1.437 7.95 1.467 7.48 0 12.35-3.696 12.407-9.415.029-3.139-1.876-5.543-5.983-7.508-2.494-1.262-4.02-2.113-4.02-3.403.029-1.174 1.29-2.375 4.105-2.375 2.318-.06 4.02.498 5.31 1.055l.645.293.97-5.953zM73.45 54.301c.587-1.583 2.846-7.713 2.846-7.713-.03.059.585-1.613.937-2.64l.499 2.376s1.35 6.6 1.643 7.977H73.45zM82.249 36.5h-5.514c-1.7 0-2.992.498-3.726 2.287L62.42 64.069h7.48s1.232-3.403 1.496-4.136h9.153c.204.968.85 4.136.85 4.136H88l-5.75-27.569zM25.051 36.499l-6.98 18.8-.764-3.813c-1.29-4.4-5.338-9.18-9.855-11.556l6.394 24.11h7.538L32.59 36.498h-7.538z" fill="#00579F"/><path d="M11.586 36.499H.117L0 37.056c8.947 2.288 14.872 7.803 17.306 14.431l-2.493-12.67c-.41-1.761-1.672-2.26-3.227-2.318z" fill="#FAA61A"/><path d="M118.646 75.552v-3.296c0-1.264-.769-2.088-2.087-2.088-.659 0-1.374.22-1.868.934-.385-.604-.934-.934-1.758-.934-.549 0-1.099.165-1.538.77v-.66h-1.154v5.274h1.154V72.64c0-.934.494-1.373 1.263-1.373.769 0 1.154.494 1.154 1.373v2.912h1.154V72.64c0-.934.549-1.373 1.263-1.373.769 0 1.154.494 1.154 1.373v2.912h1.263zm17.085-5.274h-1.868v-1.593h-1.153v1.593h-1.044v1.044h1.044v2.417c0 1.209.494 1.923 1.813 1.923.494 0 1.043-.165 1.428-.385l-.33-.989c-.329.22-.714.275-.989.275-.549 0-.769-.33-.769-.879v-2.362h1.868v-1.044zm9.779-.11c-.66 0-1.099.33-1.374.77v-.66h-1.153v5.274h1.153v-2.967c0-.879.385-1.373 1.099-1.373.22 0 .494.055.714.11l.33-1.099c-.22-.055-.55-.055-.769-.055zm-14.778.55c-.549-.385-1.318-.55-2.142-.55-1.319 0-2.198.66-2.198 1.703 0 .88.659 1.374 1.813 1.538l.549.055c.605.11.934.275.934.55 0 .384-.439.659-1.208.659a3.031 3.031 0 01-1.758-.55l-.55.88c.605.439 1.429.659 2.253.659 1.538 0 2.417-.715 2.417-1.703 0-.934-.714-1.429-1.813-1.594l-.549-.054c-.495-.055-.879-.165-.879-.495 0-.384.384-.604.989-.604.659 0 1.318.275 1.648.44l.494-.935zm30.654-.55c-.659 0-1.099.33-1.373.77v-.66h-1.154v5.274h1.154v-2.967c0-.879.384-1.373 1.098-1.373.22 0 .495.055.714.11l.33-1.099c-.22-.055-.549-.055-.769-.055zm-14.723 2.747c0 1.593 1.099 2.747 2.802 2.747.769 0 1.318-.165 1.868-.605l-.55-.934c-.439.33-.878.495-1.373.495-.934 0-1.593-.66-1.593-1.703 0-.989.659-1.648 1.593-1.703.495 0 .934.165 1.373.494l.55-.934c-.55-.44-1.099-.604-1.868-.604-1.703 0-2.802 1.154-2.802 2.747zm10.658 0v-2.637h-1.154v.66c-.384-.495-.934-.77-1.648-.77-1.483 0-2.637 1.154-2.637 2.747s1.154 2.747 2.637 2.747c.769 0 1.319-.275 1.648-.77v.66h1.154v-2.637zm-4.23 0c0-.934.604-1.703 1.593-1.703.934 0 1.593.714 1.593 1.703 0 .934-.659 1.703-1.593 1.703-.989-.055-1.593-.77-1.593-1.703zm-13.789-2.747c-1.538 0-2.637 1.099-2.637 2.747s1.099 2.747 2.692 2.747c.769 0 1.538-.22 2.142-.715l-.549-.824c-.439.33-.989.55-1.538.55-.714 0-1.428-.33-1.593-1.264h3.9v-.44c.055-1.702-.934-2.8-2.417-2.8zm0 .989c.714 0 1.209.44 1.318 1.263h-2.746c.11-.714.604-1.263 1.428-1.263zm28.621 1.758V68.19h-1.153v2.747c-.385-.494-.934-.769-1.648-.769-1.484 0-2.637 1.154-2.637 2.747s1.153 2.747 2.637 2.747c.769 0 1.318-.275 1.648-.77v.66h1.153v-2.637zm-4.23 0c0-.934.605-1.703 1.593-1.703.934 0 1.594.714 1.594 1.703 0 .934-.66 1.703-1.594 1.703-.988-.055-1.593-.77-1.593-1.703zm-38.564 0v-2.637h-1.154v.66c-.385-.495-.934-.77-1.648-.77-1.483 0-2.637 1.154-2.637 2.747s1.154 2.747 2.637 2.747c.769 0 1.318-.275 1.648-.77v.66h1.154v-2.637zm-4.285 0c0-.934.604-1.703 1.593-1.703.934 0 1.593.714 1.593 1.703 0 .934-.659 1.703-1.593 1.703-.989-.055-1.593-.77-1.593-1.703z" fill="#000"/><path d="M147.652 30.23h-17.305v31.093h17.305V30.23z" fill="#FF5F00"/><path d="M131.446 45.777c0-6.318 2.967-11.921 7.526-15.547A19.655 19.655 0 00126.777 26C115.845 26 107 34.845 107 45.777s8.845 19.776 19.777 19.776c4.614 0 8.844-1.593 12.195-4.23-4.559-3.57-7.526-9.229-7.526-15.546z" fill="#EB001B"/><path d="M171 45.777c0 10.932-8.845 19.776-19.777 19.776a19.655 19.655 0 01-12.196-4.23c4.615-3.625 7.526-9.229 7.526-15.546 0-6.318-2.966-11.921-7.526-15.547A19.655 19.655 0 01151.223 26C162.155 26 171 34.9 171 45.777z" fill="#F79E1B"/><path d="M189 25h50.873v27.463l-2.518 3.934 2.518 3.502v15.974H189V49.984l1.574-1.81-1.574-1.73V25z" fill="#016FD0"/><path d="M198.875 60.45v-7.987h8.457l.908 1.183.937-1.183h30.696v7.436s-.802.543-1.731.551h-16.997l-1.023-1.26v1.26h-3.352V58.3s-.458.3-1.448.3h-1.141v1.85h-5.076l-.906-1.208-.92 1.208h-8.404zM189 46.443l1.907-4.446h3.298l1.082 2.49v-2.49h4.1l.644 1.8.625-1.8h18.404v.905s.967-.905 2.557-.905l5.972.02 1.063 2.459v-2.479h3.431l.944 1.412v-1.412h3.463v7.987h-3.463l-.905-1.416v1.416h-5.04l-.507-1.259h-1.355l-.499 1.26h-3.419c-1.368 0-2.242-.887-2.242-.887v.886h-5.154l-1.023-1.259v1.26h-19.166l-.507-1.26h-1.351l-.503 1.26H189v-3.542z" fill="#fff"/><path d="M191.582 42.981l-2.572 5.98h1.674l.475-1.197h2.759l.472 1.198h1.712l-2.57-5.98h-1.95zm.952 1.392l.841 2.093h-1.685l.844-2.093zM196.279 48.961v-5.98l2.38.008 1.384 3.856 1.351-3.864h2.36v5.98h-1.495v-4.407l-1.585 4.407h-1.311l-1.589-4.407v4.407h-1.495zM204.777 48.961v-5.98h4.879v1.337h-3.368v1.023h3.289v1.26h-3.289v1.062h3.368v1.298h-4.879zM210.522 42.981v5.98h1.496v-2.124h.629l1.793 2.125h1.827l-1.967-2.203a1.821 1.821 0 001.64-1.837c0-1.259-.988-1.94-2.09-1.94h-3.328zm1.496 1.338h1.709c.41 0 .708.32.708.63 0 .397-.387.63-.686.63h-1.731v-1.26zM218.076 48.961h-1.527v-5.98h1.527v5.98zM221.696 48.961h-.329c-1.595 0-2.563-1.256-2.563-2.966 0-1.752.957-3.014 2.971-3.014h1.652v1.416h-1.713c-.817 0-1.395.638-1.395 1.613 0 1.158.661 1.645 1.613 1.645h.394l-.63 1.306zM224.949 42.981l-2.572 5.98h1.675l.474-1.197h2.759l.472 1.198h1.712l-2.57-5.98h-1.95zm.952 1.392l.841 2.093h-1.685l.844-2.093zM229.644 48.961v-5.98h1.9l2.428 3.757V42.98h1.495v5.981h-1.84l-2.488-3.856v3.856h-1.495zM199.899 59.427v-5.98h4.879v1.337h-3.368v1.023h3.289v1.26h-3.289v1.061h3.368v1.299h-4.879zM223.805 59.427v-5.98h4.879v1.337h-3.368v1.023h3.273v1.26h-3.273v1.061h3.368v1.299h-4.879zM204.967 59.427l2.375-2.954-2.432-3.027h1.884l1.448 1.872 1.454-1.872h1.809l-2.4 2.99 2.38 2.99h-1.883l-1.407-1.841-1.372 1.842h-1.856zM211.663 53.447v5.98h1.534V57.54h1.574c1.332 0 2.341-.706 2.341-2.08 0-1.138-.792-2.012-2.147-2.012h-3.302zm1.534 1.353h1.657c.431 0 .738.263.738.688 0 .4-.306.689-.742.689h-1.653V54.8zM217.762 53.446v5.98h1.495v-2.124h.629l1.793 2.125h1.827l-1.967-2.204a1.821 1.821 0 001.64-1.837c0-1.258-.988-1.94-2.09-1.94h-3.327zm1.495 1.338h1.709c.41 0 .708.32.708.63 0 .397-.386.63-.686.63h-1.731v-1.26zM229.376 59.427v-1.299h2.992c.443 0 .635-.239.635-.501 0-.252-.192-.506-.635-.506h-1.352c-1.175 0-1.83-.716-1.83-1.791 0-.959.599-1.884 2.346-1.884h2.912l-.63 1.346h-2.518c-.481 0-.63.252-.63.494 0 .248.184.521.551.521h1.417c1.31 0 1.878.743 1.878 1.716 0 1.047-.633 1.904-1.95 1.904h-3.186zM234.864 59.427v-1.299h2.992c.443 0 .634-.239.634-.501 0-.252-.191-.506-.634-.506h-1.352c-1.176 0-1.83-.716-1.83-1.791 0-.959.599-1.884 2.346-1.884h2.911l-.629 1.346h-2.518c-.482 0-.63.252-.63.494 0 .248.183.521.551.521h1.416c1.311 0 1.879.743 1.879 1.716 0 1.047-.633 1.904-1.95 1.904h-3.186z" fill="#016FD0"/></g><defs><clipPath id="clip0"><path fill="#fff" d="M0 0h240v100H0z"/></clipPath></defs></svg>